<svg xmlns="http://www.w3.org/2000/svg" viewBox="0 0 674 468"><defs><style>.cls-1{fill:#cc752e;}.cls-2{fill:none;stroke:#fff;stroke-miterlimit:10;stroke-width:3px;}</style></defs><title>Asset 1</title><g id="Layer_2" data-name="Layer 2"><g id="Layer_15" data-name="Layer 15"><g id="Layer_14" data-name="Layer 14"><rect class="cls-1" width="674" height="468"/></g><g id="Layer_13" data-name="Layer 13"><path class="cls-2" d="M661.19,34.77l0,0,0-.06V13h-647V354.72l0,.08,0,0v99.62H41.38l.38.58.88-.58H661.19Zm-607.46,180H65.58v15h-15V216.86Zm52.21-35.5h10.71v15h-15V182.14Zm49-33.32h9.62v15h-15V149.56Zm47-32H214v15h-15v-13Zm46.61-31.69h12.05v15h-15v-13Zm45.59-31h11.71v15h-15V53.46Zm65.64-7.31V39.51l16.31-11.15c-.82,33.75-13.64,64.84-27.14,97.57-2.88,7-5.81,14.08-8.62,21.24C348,120.63,351.85,89.6,341.49,52l11.84-8.09ZM621.25,224.39h-4.82v3.28L594.17,242.8c-8.08-44.14,7.23-84.13,19.57-116.33C623.9,100,632.77,76.81,626,58.52l11.74-7.89c-1.66,6.59-3.65,13.72-5.74,21.16-12.36,44.12-29.15,104.09.3,145.09Zm3.18,8h15v15h-15Zm-31,22.27H591l2.58-1.75c0,.48-.07,1-.07,1.44C593.47,254.45,593.48,254.56,593.48,254.66Zm-22.29,32.68a7.51,7.51,0,1,1-.69-3.12v1.4H571A7.45,7.45,0,0,1,571.19,287.34Zm-25.82-1.68,3.39-2.31a15.33,15.33,0,0,0-.44,2.31Zm-19.32,32.51a7.51,7.51,0,1,1-.79-3.33v1.79h.63A7.48,7.48,0,0,1,526.05,318.17Zm-22.92-.82h-4.36l4.9-3.34A15.39,15.39,0,0,0,503.13,317.35Zm-47.35,32h-4l4.7-3.19A15.37,15.37,0,0,0,455.78,349.34Zm-26.59,18.23a15.41,15.41,0,0,0-2.45-1.23l2.45-1.67ZM358.6,418.16h-1.14c-.24-1.43-.47-2.85-.67-4.26l1.73-1.18a14.75,14.75,0,0,0,.08,5.44Zm-20.39,8.37.55-.37h14.42v15h-15Zm-8-8.37v4.14L313.1,433.93c0-32.53,11.32-64.13,22.3-94.82,2.35-6.57,4.74-13.29,7-20-6,26.29-8,56.64,3.61,92.44l-9.75,6.63Zm-7.37-115c1.05-3.93,2.11-7.86,3.13-11.75,2.92-10.72,5.94-21.78,2.6-32.14l.87-.66a14.82,14.82,0,0,1,3.44-1.46,21.38,21.38,0,0,0,5.45-2.47l.18-.13.89-.66c6.73,12.69,6.38,29.79-1.1,52.24-3.22,10.1-6.89,20.35-10.44,30.27-9.39,26.25-19,53.15-21.91,81.06C302.37,379.58,312.74,340.87,322.84,303.17ZM264.43,422.81l-.06.15-.63,1.7c1.18-25.28,4.94-50.42,8.86-76.65,1.51-10.13,3.08-20.6,4.47-31,1.35-6.79,2.48-14.94,1.14-22.8l.62-.41c4.34-2.85,8.63-5.66,12.87-8.48C299.7,333.54,281.86,381.53,264.43,422.81ZM250.55,304.28l-6.33,4.31a14.82,14.82,0,0,0,.07-5.53h7.5Zm-56.48,38c0-.35.05-.71.05-1.07a15.38,15.38,0,0,0-1-5.5h10.73Zm-48.6,33.85a15.18,15.18,0,0,0-.11-8.43h11.86Q151.4,371.86,145.47,376.17ZM99.72,405.43a15.42,15.42,0,0,0-.42-3.37h5.26ZM36.83,233.21A7.47,7.47,0,0,1,42.61,236v1.76h1.07a7.43,7.43,0,0,1-.21,6.39l-1.12.2c.07.4.14.79.2,1.18a7.48,7.48,0,1,1-5.74-12.28ZM124.64,182a15.38,15.38,0,0,0,8.49,2.77l-8.49,5.81Zm47.92-31.77a15.51,15.51,0,0,0,5.71,3.68l-5.71,3.91Zm65.74-45a7.53,7.53,0,1,1-.63-1.79v1.79ZM364.57,159.5c-3.62,13.42-7.34,27.26-10.51,41.2l-14.17,9.39c-5-14-2.82-28.49,0-38.54,4.78-14.31,10.7-28.67,16.43-42.57C367,103.12,378,76.61,382.26,48.69,384.52,85.49,374.77,121.68,364.57,159.5ZM419.36,54.09c1.91-4.5,3.86-9.11,5.77-13.7-2.28,27.37-7.77,54.42-13.53,82.68-2.89,14.17-5.87,28.83-8.42,43.57-.09.47-.16.94-.23,1.41l-12.83,8.61h-1.24C385.4,134.26,402.64,93.54,419.36,54.09Zm25.5,95.07h5.85v15h-15v-8.91C438.78,153.18,441.81,151.16,444.85,149.16ZM570.5,254.66v4.24l-30.81,21c-6.55-41.74,7.09-80.15,19.19-114.19C568.5,138.57,577,114.56,573.44,94Q583.8,86.9,594,80c-1.38,5.36-3.11,11.18-5,17.42-10.85,36.29-25.72,86-2.28,149.06l3.75-1.39.4-.08-14.19,9.65Zm0,13.91v4.88a15.34,15.34,0,0,0-5-1.48Zm-45.24,17.09v4l-33.75,22.95q-.55-2.68-1-5.33c-1.42-33.5,11.65-67.63,23.38-98.25,3.91-10.21,7.76-20.25,11-30-6,29.23-7.8,63.25,5.65,103.61l1.44-.48c.15.88.31,1.77.48,2.65l-1.28.87Zm-79.08,57.78c-.58-40.57,12.68-78.22,24.48-111.72,10.75-30.51,20.13-57.14,16.42-79.1,4.79-3,9.24-5.74,13.51-8.44-1.71,8.9-4.28,18.59-7.1,29.19-9.4,35.37-21,79-11,134.77.15,3.07.4,6.15.78,9.22h-4.62v4ZM402.76,373c-.4-52,11.93-83.39,22.91-111.33,9.85-25.06,18.38-46.78,14-76.29l.27-.19,15.62-10.85C453.93,186,450,199.24,445.62,214c-10.95,36.85-24.49,82.43-8.49,135.3h-7.95V355Zm-21.49,9.7v4.92l-25.43,17.29c-2.52-34.42,8.41-63.68,19-92.1,11.64-31.14,22.65-60.61,13.41-92.59q2.92-1.7,5.81-3.34l.28-.18,11.91-8.21c-1.84,10-4.87,20.93-8.1,32.58-10.68,38.47-23.78,85.72-6.12,139.2l-3.57,2.43ZM305.92,249.09v15H291V251.88l4.26-2.79Zm-22.28,24.68a7.51,7.51,0,1,1-.69-3.12v1.4h.48A7.46,7.46,0,0,1,283.65,273.77Zm-72.56,39v15h-15V316.91l5.74-4.13ZM91.73,392.07a15.36,15.36,0,0,0-5.9-1.86l5.9-3.91ZM55.9,400.51c-5-16.29,5.41-40.61,17.37-68.47,11.83-27.56,25.85-60.24,29-95,6.74,49.07-8.91,90.8-20.85,122.64-4.31,11.49-8.15,21.73-10.31,30.71Q63.55,395.39,55.9,400.51Zm68.74-198.3v-1.93l17.69-12.09c.29,36.71-13.51,69.93-25.91,99.74C103.23,319.63,91.84,347,101,370.5l-.89.6h-8.4v5.6l-10.35,6.87c2-6.38,4.69-13.45,7.57-21.11C103,325,122,274.2,105.65,213.26l16.17-11.05Zm47.92-33.32v-1.36l19.52-13.35c-1.44,32.15-15.63,64.06-28.42,92.8-4.44,10-8.81,19.81-12.56,29.4,7.06-26.9,10.6-58.16,1.91-95.48l17.55-12Zm44.79-32H222v-3.21L238,122.8c-2.82,38-17.15,72.73-30,103.81-13.18,31.92-24.56,59.51-19.87,82.55v3.63c-5.66,4-11.32,7.93-17.05,11.73,1.73-12,6.07-25.44,11-40.84,11.26-34.82,25.12-77.77,18.08-134,0-.35,0-.71,0-1.06Zm51.29-31.69v-3.37l14.49-9.91c-2.71,50.25-16.4,80.34-28.62,107.18-11.37,25-21.2,46.57-17.78,77.18v2.25c-1.9,1.1-3.82,2.24-5.72,3.43l-.17.11q-5.89,4.12-11.61,8.25c1.58-13,6.84-27.84,12.86-44.76,12.51-35.2,27.89-78.49,16.66-130.13l15-10.24Zm45.24-31v-3.3l17.91-12.24c1,35-11.62,63.94-23.86,92-13.08,30-25.46,58.51-18.58,90.37H283v6.47l-12.48,8.17c2.33-10.58,6.21-22.18,10.38-34.61,12.57-37.49,28-83.46,13.86-137.12L309,74.21Zm70,133.41h9.57L390,210q-2.83,1.61-5.7,3.28a15.56,15.56,0,0,0,.09-1.66A15.41,15.41,0,0,0,383.84,207.62Zm51.82-35.5h9l-9.3,6.46-.54.38a15.37,15.37,0,0,0,.95-5.28C435.74,173.15,435.71,172.63,435.66,172.12Zm33-38.65.28-.28c.35-.35.71-.69,1.07-1a7.48,7.48,0,1,1-10,7.06s0,0,0-.06q4.08-2.68,8.27-5.47Zm72.27-26.66q-4.07,2.87-8.15,5.78a14.8,14.8,0,0,0,.14-5.78Zm84-79.41c3.11-2.05,5.91-4.11,8.8-6.25h6.16v15H625Zm-7.31,18.43a7.51,7.51,0,1,1-.69-3.12v1.4h.48A7.46,7.46,0,0,1,617.66,45.84ZM605,60.42a15.33,15.33,0,0,0,2.76.7L605,63C605,62.11,605,61.26,605,60.42ZM551.34,163c-9.17,25.8-19.19,54-21.06,84.63-6.38-43.06,4.35-78,13.32-107.22,3.44-11.2,6.67-21.74,8.59-31.7l2.68-1.87h1.23V106q5-3.47,9.93-6.88C567.67,117,560,138.68,551.34,163Zm-50.11,12.44c3.53-13.26,6.8-25.6,8.41-37,3.9-2.53,7.75-5.06,11.69-7.69l.14-.1,3.36-2.44c2.94,22.23-7.49,49.45-18.43,78-7.27,19-15,39.24-19.71,60.06C486.54,230.71,494.46,200.88,501.23,175.42Zm9.43-52.31a15.34,15.34,0,0,0,5.25,1.58l-5.31,3.51C510.67,126.48,510.69,124.79,510.66,123.11Zm21.4-.17q5.22-3.75,10.42-7.43c-1.78,7-4.07,14.51-6.53,22.52-1.26,4.1-2.55,8.31-3.83,12.64C533.66,141,533.86,131.67,532.06,122.94Zm24-26.73V89.29a15.38,15.38,0,0,0,6.25,2.61ZM517.65,116.8a7.48,7.48,0,1,1,7.48-7.48A7.49,7.49,0,0,1,517.65,116.8ZM463.12,229.06c-9.81,27.85-20.61,58.52-23.94,91.64-5.08-39.73,5.36-74.93,14.11-104.39,5.19-17.46,10-33.51,10.79-47.95q7.66-5.31,15.59-10.78C481.47,177,472.88,201.35,463.12,229.06ZM464,158.7q-.19-2.32-.58-4.57a14.8,14.8,0,0,0,6.69.35ZM481,147l-.14.09a15.37,15.37,0,0,0,2.14-7.82c0-.14,0-.29,0-.43h11.13C490,141.4,485.68,144.09,481,147ZM418.22,258.7c-9.82,25-21.66,55.13-23.28,101.36-9.21-44.15,1.79-83.86,11-116.89,4.11-14.82,7.91-28.53,9.46-41l16.87-11.7C435.06,215.85,427.56,235,418.22,258.7Zm-2.13-66.76c0-1.14,0-2.26,0-3.38a15.41,15.41,0,0,0,4.06.59ZM407.64,184a62.6,62.6,0,0,1,.15,13.67l-.15.1Zm-47.79,40.13a15.42,15.42,0,0,0,4.48,2.25q-2.25,1.64-4.48,3.21Zm11.22-5.39a54,54,0,0,0-1.61-5.24L362.81,216a7.48,7.48,0,1,1,8.26,2.81Zm-29.87.06h10.65v15h-15V221.67Zm-12.31,8.42-.24-.13.24-.16Zm-84.54,44.86c-2.14-26.66,6.54-45.76,17.43-69.67,11.12-24.42,24.54-53.91,28.6-100,6.87,44.58-6.21,83.65-17.11,116.15-5.36,16-10.28,30.67-12.19,44-.66.58-1.34,1.14-2,1.72-1.44,1.2-2.92,2.43-4.43,3.91-2.17,1.35-4.36,2.63-6.54,3.88Zm38.61-15v2.76a15.34,15.34,0,0,0-2.66-1Zm-87.46,47.66c-2.76-20.23,7.78-45.78,19.89-75.13,11.27-27.3,23.67-57.35,28.74-90.25,3,39.95-9.3,74.54-19.6,103.49-7,19.66-13.33,37.51-13.73,53.52l-4.14,3-7.39,5.36Zm-87.64,61.13c-6.81-20.2,3.76-45.63,15.95-74.92,10.52-25.28,22-53,25.49-83.4,4.1,43.33-8.46,77.68-19,106.37-6,16.41-11.48,31.4-12.73,45.35Q112.74,362.63,107.86,365.91Zm17.5.86a7.48,7.48,0,1,1,2.29,12.3A40.56,40.56,0,0,1,125.36,366.77Zm1.13-13.53c2-10.94,6.41-23,11.37-36.53,1.47-4,3-8.16,4.49-12.42-2.42,11.38-3,22.26-.47,32.47h-4.24v8.7Q132.09,349.37,126.48,353.24Zm23.68-16.47c-7-24.13,6.53-54.47,20.8-86.54,8.26-18.56,17.08-38.39,22.85-58.93-1.73,35.48-11.21,64.85-19.31,89.91-5.79,17.91-11,34.11-12,48.85q-5.45,3.43-11.05,6.7ZM99.73,381l2.83-1.89h12.14v15h-15Zm14.76-9.89.63-.42c0,.14,0,.28,0,.42Zm23.15-12.67a15.37,15.37,0,0,0-2.93-1.15l2.93-2Zm8-8.82,2.6-1.84q2.69-1.48,5.32-3h7v15h-15Zm25.52-8.35a7.48,7.48,0,1,1,7.48,7.48A7.49,7.49,0,0,1,171.16,341.25Zm17-12.21a15.42,15.42,0,0,0-5.43-2.71q2.72-1.86,5.43-3.75Zm33.42-23.44a7.48,7.48,0,1,1,7.48,7.48A7.49,7.49,0,0,1,221.54,305.6Zm15.17-13.42a15.37,15.37,0,0,0-4-1.61l2.64-1.87,1.4-.85Zm8-9,2.36-1.33,3.12-1.76h9.48v15h-15Zm70.13-38.82a46.27,46.27,0,0,1-.8-4.84,7.48,7.48,0,0,1,2.59-4.49l1.37-.9a7.48,7.48,0,1,1-3.15,10.24Zm22-2.58h5.64q-3.34,2.37-6.77,4.91A15.37,15.37,0,0,0,336.84,241.78Zm19.06.37.52-.37h3.43v-2.39q2.41-1.69,4.86-3.42c-.61,13.72-5.55,28.55-11,44.86-1,2.85-1.92,5.75-2.89,8.72,2.84-16.21,1.2-29.53-4.92-40.39C349.3,246.75,352.64,244.42,355.9,242.15Zm5.42,41.21c6.44-19.31,12.23-36.66,11.44-53.23l.68-.5c2.56-1.83,5.14-3.53,7.73-5.15,7.43,28.75-2.89,56.37-13.79,85.5-8.51,22.75-17.8,47.65-19.57,75.74C340.75,345.05,351.54,312.67,361.32,283.36ZM580.22,79.69a15.48,15.48,0,0,0,.3-3c0-.52,0-1-.08-1.54H587Zm16.49,20c2.9-9.68,5.49-18.4,7-26.23l15.41-10.35c4.5,15.23-3.26,35.51-12.83,60.47-9,23.6-19.64,51.27-21.93,82C577.91,162.58,588.5,127.19,596.71,99.72Zm28.85-55.59h7.52l-7.85,5.27a14.87,14.87,0,0,0,.33-5.27Zm-30.87,8v15h-15V62.25l2.2-.28q-.36-2.83-.64-5.67l5.94-4.14ZM562.08,69.79a7.46,7.46,0,0,1,9.64,3.54v1.79h.63a7.46,7.46,0,0,1-2.48,7.24l-.13-.29-4.48,2.07H565a7.47,7.47,0,0,1-5.43-12.62ZM545.33,83.85a55.11,55.11,0,0,1,.29,15h-9.79q-.66-5-1-10.16,3.56-2.41,7-4.8Zm-20.2,11.92c-.26-.15-.54-.27-.81-.4l.81-.47Zm-26.52,20.06v15h-15v-7.6l1.91-.34c-.13-.73-.24-1.46-.36-2.19,2.6-1.66,5.12-3.27,7.62-4.83Zm-78.36,50.36a7.48,7.48,0,1,1-5.4,12.65,45.53,45.53,0,0,0-1.34-4.87l-.72.24c0-.18,0-.36,0-.55a7.43,7.43,0,0,1,.64-3l2.93-2,.11-.08,3.35-2.39Zm-27.7,18.46h7.09v15h-15v-9.7Zm-15.87,13.58A15.4,15.4,0,0,0,374,197l2.64-1.76Zm-45,12.58h-2.8v6.55l-14.8,9.76c1.48-13.43,7.1-27.71,13.26-43.39,1.17-3,2.36-6,3.56-9.11C328.64,184.84,327.61,197.86,331.69,210.82Zm-11.78-30c-7.34,18.67-13.94,35.47-14.21,51.84l-8.75,5.75c-5.82-29,5.92-56,18.32-84.48,9.7-22.27,20.29-46.64,23.54-74.6C343.7,120.28,331.22,152.05,319.91,180.8Zm1.45-130.39a7.48,7.48,0,1,1,7.48-7.48A7.49,7.49,0,0,1,321.35,50.41Zm-7.48,6.06a15.36,15.36,0,0,0,4.53,1.65l-4.53,3.1ZM292.39,75.9c-.18-.56-.37-1.13-.56-1.69h3Zm-9-1.69a7.45,7.45,0,0,1,.21,1.71h0a7.51,7.51,0,1,1-.69-3.13v1.4ZM268.63,89.47A15.41,15.41,0,0,0,271,90.53l-2.38,1.62Zm-21.94,17.67c-.09-.34-.17-.68-.27-1s0-.61,0-.91h3.15ZM222,119.37a15.43,15.43,0,0,0,3.86,2L222,124ZM199.8,139.2q-.1-1.15-.21-2.3h3.58Zm-16.21,7.68a7.48,7.48,0,1,1,7.48-7.48A7.49,7.49,0,0,1,183.59,146.89Zm-32.67,25.73h0l-1.46.4q-.23-2.05-.52-4.12v0h7.45ZM102,206.07c-.11-.91-.21-1.81-.34-2.72,0-.38,0-.77-.06-1.15h6Zm-15.8,5.17a7.48,7.48,0,1,1,7.48-7.48A7.49,7.49,0,0,1,86.19,211.25Zm-3,7.7-9.58,6.55V212.71A15.5,15.5,0,0,0,83.16,218.95ZM54.54,237.71h1.17l-.81.55Zm15.34,0h3.69v-2.52L95,220.56c.71,39-15,75.57-29.06,108.33-3,7-5.89,13.72-8.5,20.24C68,314,74.48,275.65,58.93,245.2Zm-21,166.88H44.67v3.5q-4.82,3.27-9.62,6.57c2.55-8.25,5.88-17.53,9.41-27.33,1.34-3.74,2.73-7.59,4.12-11.53C46.11,386.54,45.75,396.22,48.85,404.59Zm-18,38.23c-.84-3.25-.65-7.57.27-12.73a7.48,7.48,0,1,1-.27,12.73Zm13.84-18.27A15.45,15.45,0,0,0,39,421.63l5.64-3.88Zm8-12h15v15h-15Zm11.52-8,5.19-3.46,0,.25a15.39,15.39,0,0,0-.55,3.21Zm13.92,5.3a21.66,21.66,0,0,1-.82-7,7.49,7.49,0,1,1,.82,7Zm44.58-24.4a15.37,15.37,0,0,0,3.84,1.61l-3.84,2.56ZM168.61,353a15.46,15.46,0,0,0,5.37,3l-5.37,3.72Zm50.48-35.56a15.42,15.42,0,0,0,7,3.34l-7,4.72Zm48.59-30.75a15.48,15.48,0,0,0,1.66.94l-1.35.7a22,22,0,0,1,1,2.34l-1.33.87Zm23.87-14.65h5.55q-2.8,1.9-5.61,3.79a14.24,14.24,0,0,0,.05-3.79Zm22.38-17.73a15.36,15.36,0,0,0,5.57,1.81q-2.79,2.09-5.57,4.11ZM373.79,407.7a7.48,7.48,0,1,1-7.48,7.48A7.49,7.49,0,0,1,373.79,407.7Zm7.48-6.06a15.37,15.37,0,0,0-4.15-1.57l4.15-2.82Zm8-9.83,1.69-1.15h4.92c.13.32.24.63.37.94l2.32-.94h5.67v15h-15Zm16.45-9.15H403v-.17l2.62-1.78v0A15.49,15.49,0,0,0,405.72,382.66Zm15.35-9.41a7.48,7.48,0,1,1-7.48,7.48A7.49,7.49,0,0,1,421.07,373.25Zm16.11-14,2.78-1.89h12.18v15h-15Zm34-15.89a7.48,7.48,0,1,1-7.48,7.48A7.49,7.49,0,0,1,471.18,343.34Zm7.48-6.06a15.37,15.37,0,0,0-6.43-1.88l6.43-4.37Zm8-11.7.33-.23h14.63v15h-15Zm38.59-26.24v4.89a15.33,15.33,0,0,0-5.06-1.45Zm8-5.44.35-.24h14.62v15h-15Zm45.24-30.76.69-.47h14.27v15h-15ZM609,246.86a7.48,7.48,0,1,1-7.48,7.48A7.49,7.49,0,0,1,609,246.86Zm7.48-6.06a15.38,15.38,0,0,0-3.16-1.31l3.16-2.15ZM617,23l-.34.2-2.86,2.86c-.78.35-1.72.73-2.64,1.1-1.31.52-2.65,1.06-3.8,1.64l-.43.25L602,32.32c.14-3.57.44-7.34.9-11.35H617Zm-23,14.82q-4.67,3.2-9.21,6.35h-4.25A210,210,0,0,1,580.84,21h14A140.33,140.33,0,0,0,593.92,37.81Zm-21.46,6.35h-.73v9.08l-6.92,4.86L558,62.91l-.6.32A223.48,223.48,0,0,1,562.5,39.3c1.51-6,3.06-12.15,4.22-18.33h6.1A218,218,0,0,0,572.46,44.16Zm-17.72-6.81c-2.64,10.45-5.33,21.12-6,32q-4.61,3.21-9.34,6.47h-5c.08-16.42,2.33-34.39,6.81-54.88h17.34C557.49,26.45,556.1,32,554.74,37.34ZM526.42,75.85h-1.29v9.69l-2,1.37C521,88,519,89.24,517,90.48s-3.84,2.4-5.67,3.31l-.58.29-.46.46-.81.81c2.4-15.8,6-30.82,9.78-46.66,2.16-9,4.36-18.25,6.35-27.71H533C528.68,41.33,526.5,59.31,526.42,75.85Zm-14.95-29c-3.86,16.09-7.84,32.72-10.29,49.78a56.06,56.06,0,0,0-1.07,5.54c-3.29,1.88-6.46,3.77-9.57,5.7h-6.63c-1.29-28.56,7.56-57.44,18-86.86h15.51C515.55,29.76,513.49,38.41,511.47,46.82Zm-35.58,61h-.24v9.44L473,119l-.37.24-.31.31c-1.37,1.37-2.76,2.53-4.23,3.76l-.54.45a15.41,15.41,0,0,0-9.73,3.48c.08-.69.16-1.39.26-2.1,2.58-10.58,5.44-21.07,8.21-31.21,6.7-24.54,13-47.8,15.9-72.95h11.28C483.15,50.16,474.65,78.93,475.89,107.83Zm-17.35-16c-2.8,10.25-5.7,20.86-8.31,31.61l-.07.38a54.94,54.94,0,0,0-.5,12.63l-1,.64-6.22,4.09h-7.09c-1.6-42.24,15.15-81.81,32-120.19h6.72C471.27,45.18,465.07,67.88,458.54,91.81Zm-30.8,55.74V151c-3.64,2.47-7.32,5-11.08,7.67a15.36,15.36,0,0,0-4.21,1.7c2.2-12,4.63-24,7-35.67,7.2-35.34,14-68.82,14.73-103.69h24.48C441.79,59.46,424.28,102.35,427.74,147.55Zm-7.2-117-.12.28c-2.72,6.67-5.62,13.5-8.42,20.11-17,40.17-34.59,81.63-31.14,125.69h-4.17v9l-12.88,8.59c2.66-11,5.62-22,8.5-32.65,12.26-45.46,24.9-92.41,14.12-140.26l.51-.35h37.72A73,73,0,0,1,420.53,30.58ZM339.07,44l0-.06h.1ZM328.84,29.39a15.42,15.42,0,0,0-1.47-.72l1.47-1ZM282.91,62a15.34,15.34,0,0,0-3-1.1l3-2ZM260.73,74.24h-.38l.43-.29C260.76,74,260.74,74.14,260.73,74.24ZM237.66,92.81a15.34,15.34,0,0,0-3-1.09l3-2.06Zm-22.13,13.12h-1.8l1.92-1.31C215.59,105.06,215.55,105.5,215.53,105.94Zm-24.46,19.92a15.37,15.37,0,0,0-4.28-1.6l4.28-2.91Zm-22.89,12.06H166.7l1.64-1.12C168.28,137.17,168.22,137.54,168.18,137.92Zm-26.59,18.23c-.3-.19-.6-.37-.92-.53l.92-.62Zm-10.8,6.19a7.51,7.51,0,1,1-2.79,1.9ZM118.09,171c0,.09,0,.18,0,.27h-.43ZM93.67,190.22a15.41,15.41,0,0,0-2.35-1l2.35-1.6ZM71,206.74H65.49l5.25-3.57c0,.2,0,.39,0,.59A15.48,15.48,0,0,0,71,206.74Zm-28.39,19.6a15.35,15.35,0,0,0-4.38-1.06l4.38-3ZM22.22,245.78a15.55,15.55,0,0,0,8.4,9.09l-8.4,5.74ZM44,255.39a129.71,129.71,0,0,1-.2,35.17c-2,13.1-7.06,26.57-15.49,41.17-2,3.38-4,6.77-6.12,10.09V270.3Zm-16.74,93.4c2.66-4.24,5.42-8.62,8-13.07,8.93-15.47,14.32-29.85,16.47-44,1.95-12.75,1.85-26.37-.3-41.44l.85-.58c19.23,38.74.19,91.68-15.36,134.87-5.07,14.08-9.58,26.62-12.2,37.2l-2.51,1.76V357C23.89,354.22,25.6,351.47,27.29,348.79Zm23,86.77h6.27q-3.3,2.25-6.63,4.49a15.43,15.43,0,0,0,.42-3.51C50.36,436.21,50.33,435.88,50.31,435.56Zm25.32-17.08a15.45,15.45,0,0,0,3.2,1.63l-3.2,2.25Zm16.23,2.24q6.57-4.63,13.27-9.31a224.76,224.76,0,0,1,2.27,35h-12C95.52,437.9,94.86,429.1,91.86,420.72Zm20.57-14.38,6.22-4.28h4v-2.75q3.69-2.5,7.44-5c1.86,8.28,1.07,17,0,24.7-.85,5.86-1.95,11.82-3,17.58-.59,3.23-1.2,6.54-1.77,9.86h-9.9A230.84,230.84,0,0,0,112.44,406.34ZM134.94,438c1.07-5.84,2.18-11.87,3.06-17.88,1.28-8.77,2.26-19.94-.81-30.49q2.93-1.91,5.88-3.8a6.65,6.65,0,0,0,4.58-1.4l3.28-2.38c2.92,19.33,2.65,40.48-.83,64.36H133.43C133.92,443.62,134.43,440.8,134.94,438Zm23.24-61.17c6.8-4.86,13.49-9.54,20.13-14.13a55.44,55.44,0,0,1,0,9.8c-.1,1.83-.21,3.71-.22,5.57-1.4,11.05-3.93,22.39-6.38,33.36-2.55,11.42-5.17,23.2-6.61,35h-6.94C161.86,420.6,161.85,397.77,158.18,376.87Zm21.36,36.34c2.51-11.23,5.1-22.84,6.54-34.35l0-.5c0-1.71.1-3.5.2-5.38.27-4.8.55-10-.84-15.16q6.62-4.53,13.25-9a158.56,158.56,0,0,1,1.46,16.43c.85,23.7-3.12,49.57-12.43,81.19H173.18C174.6,435.36,177.11,424.12,179.54,413.21ZM208.17,365a165,165,0,0,0-2.1-21.09l12.13-8.13h.89v-.6l6.14-4.11c2.89,11,.07,23.28-2.67,35.21-.36,1.58-.72,3.14-1.06,4.67-.94,4.24-1.91,8.47-2.89,12.7-2.79,12.13-5.68,24.67-7.68,37.25-1.4,8.77-2.36,17.34-2.93,25.59H196.08C205.18,415,209,389,208.17,365Zm10.65,57.15c2-12.3,4.82-24.71,7.58-36.71,1-4.25,2-8.5,2.9-12.76.34-1.51.69-3.05,1-4.61,3-13.16,6.43-28,1.82-41.66,4.46-3,9-6,13.54-9.13,5.81,44.39-8.52,89.7-23,129.21H216C216.57,438.61,217.5,430.45,218.82,422.12Zm34.26-109.89,2.29-1.56.31-.21.26-.26a39.86,39.86,0,0,1,6.39-5.5l2.47-1.64h2.88v-1.91l3-2a65,65,0,0,1-1.53,16.45l0,.26c-1.38,10.37-2.95,20.85-4.47,31-4.87,32.55-9.87,66.17-9.25,99.62H231.28C246.12,405.51,260.38,358.63,253.08,312.23Zm18.75,113.62c18.1-42.89,36.63-92.91,27.41-143.91l-3.38.61c5.13-3.44,10.23-6.91,15.32-10.49h2.75v-2q3.85-2.74,7.71-5.59c1.34,7.47-1,15.93-3.38,24.83q-1.55,5.87-3.14,11.76C302.77,347.17,290,394.7,302,441.48l-4.75,3.23,1.18,1.74h-33A154.38,154.38,0,0,1,271.83,425.85Zm41.58,17.55L330.21,432v14.48H313.65C313.56,445.43,313.48,444.41,313.41,443.4Zm47.77-19.26a15.24,15.24,0,0,0,14.9,6.35l-14.9,10.25Zm28-10.51h11.37l-13.29,9.15a15.37,15.37,0,0,0,2-7.59C389.27,414.66,389.24,414.14,389.19,413.63Zm23-20.2a15.4,15.4,0,0,0,17.32.24l-17.32,11.92Zm24.32-12.7c0-.14,0-.28,0-.43H449l-19,13.1A15.47,15.47,0,0,0,436.55,380.73Zm23.59-19.07a15.44,15.44,0,0,0,9.32,4.54l-9.32,6.41Zm26.3-13.34h9l-9.3,6.4a14.69,14.69,0,0,0,.3-6.4Zm23.19-17.53a15.38,15.38,0,0,0,7.26,2.77l-7.26,5ZM534,316.63h7.53l-8,5.49a15.41,15.41,0,0,0,.53-3.95C534.05,317.65,534,317.13,534,316.63Zm22.25-15.74a15.36,15.36,0,0,0,5.53,1.8l-5.53,3.8Zm22.86-15.26h7.45L578.74,291a14.85,14.85,0,0,0,.35-5.37Zm22.38-17.73a15.38,15.38,0,0,0,7.48,1.94c.2,0,.39,0,.59,0l-8.07,5.55Zm22.91-12.54h6.15l-7.33,5A15.38,15.38,0,0,0,624.38,255.35Zm11.1-31,17.71-12v27.42l-5.79,4V224.39Zm17.71-21.72-12.7,8.64c-6.81-29.3-2.26-60.95,12.7-89.3Zm0-96.44c-18,27.62-26,59.23-23.26,89.61-14.18-36.38-1.09-83.12,9.77-121.9,3.07-11,5.87-21,7.79-29.83h.45v-.37l5.25-3.55Zm0-75.71-3.73,2.53A57.13,57.13,0,0,0,649.92,21h3.27ZM372.75,21,359.8,29.82V21ZM351.8,35.29l-.95.65h-14V22.23L338.68,21H351.8ZM324.46,21,291.7,43.24h-8.8v6l-36.79,25h-8.45V80l-38.16,25.95h-8.44v5.74l-38.6,26.25H141.59v7.4l-14.74,10a15.52,15.52,0,0,0-3.91,2.66l-19.47,13.24H93.67v6.66L51.26,206.74H42.61v5.88L22.22,226.49V21ZM22.22,445.42c.25.35.5.7.78,1h-.78Zm48.45-9.87h5v-3.45l9.4-6.58c2,6.71,2.47,13.87,2.38,20.93H54.76Q62.81,441,70.67,435.56ZM367,446.45l142.58-98.13h.07v-.05l46-31.64h.61v-.42l44.43-30.58h.81v-.56l43.17-29.71h2.76v-1.9l5.79-4v197Z"/></g></g></g></svg>