<svg xmlns="http://www.w3.org/2000/svg" viewBox="0 0 319.46 461.08"><title>Asset 7</title><g id="Layer_2" data-name="Layer 2"><g id="Layer_2-2" data-name="Layer 2"><path d="M306.17,255.6a145,145,0,0,0-167.81-79.87L54.1,0,0,25.94,84.61,202.41a144.95,144.95,0,0,0,90.07,258.68A145,145,0,0,0,306.17,255.6ZM226.66,429.67q-4.43,2-9,3.71c-3.34-7.08-6.85-14.27-10.28-21.29-4.36-8.93-8.88-18.17-12.92-26.94l-.09,0L118.36,226.55l-9.83,7.91a105,105,0,0,0,66.08,186.63h0a104.21,104.21,0,0,0,14.44-1l.39.8c2.9,5.94,5.86,12,8.71,18a123.91,123.91,0,0,1-23.49,2.23,124.95,124.95,0,0,1-71.77-227.37l7-4.86L26.68,35.33l18-8.65,72.85,151.94c4.12,8.94,8.66,18.22,13,27.21,1.91,3.9,3.84,7.86,5.75,11.81l-.08,0L227.35,407.6l9.74-7.24a105.42,105.42,0,0,0,32.74-128.06,104.67,104.67,0,0,0-113.61-59.53c-2.52-5.26-5.1-10.55-7.64-15.73l-1.4-2.86A125,125,0,0,1,288,264,125.09,125.09,0,0,1,226.66,429.67Zm-46.87-28.74q-2.58.16-5.16.16h0a85.29,85.29,0,0,1-77.32-49.46,85.12,85.12,0,0,1,14.39-92.75ZM165.17,231.67a85.1,85.1,0,0,1,86.48,49,85.41,85.41,0,0,1-17.16,95.58Z"/></g></g></svg>