<svg xmlns="http://www.w3.org/2000/svg" viewBox="0 0 359.94 513.84"><defs><style>.cls-1{fill:none;stroke:#636863;stroke-miterlimit:10;stroke-width:11px;}.cls-2{font-size:72px;fill:#666;font-family:MyriadPro-BoldCondIt, Myriad Pro;font-weight:700;font-style:italic;}.cls-3{letter-spacing:-0.01em;}</style></defs><title>Asset 5</title><g id="Layer_2" data-name="Layer 2"><g id="Layer_21" data-name="Layer 21"><path class="cls-1" d="M220.32,212.64H121.5c-58.32,0-105.77,46.84-105.77,104.41h0V421.47H326.09V317.06C326.09,259.48,278.64,212.64,220.32,212.64Zm7.06,13.05L174.32,291l-52.54-65.55h98.53Q223.88,225.43,227.38,225.7Zm85.76,183H28.68V317.06c0-46.23,34.87-84.57,80-90.75L107,227.62l67.23,83.89L242.12,228c40.69,9.71,71,46,71,89.06Z"/><path class="cls-1" d="M299.38,115.88c-8.51-13.92-17.29-28.31-35.83-38.31C253.49,36.28,215.78,5.5,170.91,5.5c-46.36,0-85.09,32.86-93.55,76.23-13.88,8.93-20.64,24.58-29.07,44.12-5.77,13.36-12.3,28.51-22.51,45L13.2,191.1l22.5-8.48c.15-.06,15-5.63,31.39-10.37,25.3-7.31,34-6.8,36.37-6.34a96,96,0,0,0,134.21.66C256,158,314.39,170,347.41,179.82L353,164.61C321,151.27,310,133.28,299.38,115.88ZM170.91,21.7a79,79,0,0,1,73.67,50.08c-34,5.77-71.14,8.07-83.21,2.7,15.36-4.08,30.15-6.83,36.31-3.47l7.94-14.18c-15.33-8.36-42.62-.08-71.51,8.69C120.34,69.7,106.24,74,95.93,75.44A78.9,78.9,0,0,1,170.91,21.7ZM62.84,156.6c-4.33,1.25-8.54,2.54-12.41,3.79,5.17-10.1,9.22-19.51,13-28.19,4.45-10.3,8.21-19,12.51-25.73a92.63,92.63,0,0,0,14.8,43.77A206.19,206.19,0,0,0,62.84,156.6Zm108.07,20.79c-43.48,0-78.86-34.92-78.86-77.85,0-2.53.13-5,.37-7.51,12.66-.77,29.19-5.78,46.5-11l4.79-1.45a17.93,17.93,0,0,0,4.95,6.11c4.63,3.74,13.39,8.12,36.92,8.12,7.69,0,17-.47,28.16-1.58,13.69-1.36,26.49-3.31,35.07-4.75a77.12,77.12,0,0,1,1,12.1C249.77,142.47,214.39,177.39,170.91,177.39ZM303,152.56c-20.56-3.87-37.19-5.55-50.14-5a92.56,92.56,0,0,0,13.36-48c0-.17,0-.34,0-.5,8.05,7,13.33,15.66,19.15,25.2,5.74,9.39,11.85,19.41,21.19,29Z"/><text class="cls-2" transform="translate(80.12 495.84)">P<tspan class="cls-3" x="32.33" y="0">r</tspan><tspan x="52.99" y="0">ofile</tspan></text></g></g></svg>