<svg xmlns="http://www.w3.org/2000/svg" viewBox="0 0 267.66 396.52"><defs><style>.cls-1{fill:none;}.cls-2{fill:#f9bf8f;}.cls-3{fill:#d8941d;}</style></defs><title>Asset 8</title><g id="Layer_2" data-name="Layer 2"><g id="Layer_2-2" data-name="Layer 2"><path class="cls-1" d="M102.67,209.37q-3.6,2.53-6.89,5.36C98.44,212.62,100.69,210.87,102.67,209.37Z"/><path class="cls-1" d="M112.73,181.11c-2.74-5.23-5.62-10.71-8.79-16.72l8.77,16.72Z"/><path class="cls-1" d="M237.14,241.81a92.14,92.14,0,0,0-108-45.33c-2.68.93-5,1.74-7,2.49L207,360.89a91.72,91.72,0,0,0,35.49-46.09c-1.43,3.65-2.77,6.64-3.88,8.79,1.1-2.14,2.44-5.14,3.88-8.79A91.74,91.74,0,0,0,237.14,241.81Z"/><path class="cls-1" d="M122,198.91l0,.06c2-.75,4.35-1.56,7-2.49C126.74,197.19,124.38,198,122,198.91Z"/><path class="cls-1" d="M64,292.32c0-.19,0-.33.06-.42,0,.09,0,.23-.06.42a91.94,91.94,0,0,0,125.23,77.87l-26.15-49.47,26.15,49.47h0l-85-162c-.57.38-1.11.78-1.66,1.17-2,1.49-4.23,3.25-6.89,5.36A92.34,92.34,0,0,0,64,292.32Z"/><path class="cls-2" d="M122.08,199l0-.06c2.34-.92,4.7-1.72,7.07-2.43l.42-.15-.42.15A91.93,91.93,0,0,1,242.49,314.8c8.33-21.22,19.77-64.66,6.22-92.6a112.19,112.19,0,0,0-136-41.1c3.23,6.16,6.26,12,9.34,17.86Z"/><path class="cls-3" d="M64,292.32a92.34,92.34,0,0,1,31.75-77.59l-.46.36.46-.36q3.29-2.83,6.89-5.36c7-5.26,10.86-7.28,19.4-10.4-3.08-5.89-6.11-11.71-9.34-17.86h0l-8.77-16.72h0L17.71,0,0,9.29,95,190.4A112,112,0,0,0,95.47,379C58.74,350,63.25,298.05,64,292.32Z"/><path class="cls-3" d="M254.85,232.52a112.71,112.71,0,0,0-6.14-10.32c13.55,27.93,2.1,71.37-6.22,92.6A91.72,91.72,0,0,1,207,360.89L122.08,199h0c4.46,8.54,9,17.26,14.44,27.51-5.42-10.25-10-19-14.44-27.51-8.53,3.12-12.4,5.14-19.4,10.4.56-.39,1.1-.79,1.66-1.17l85,162h0L198.65,388q4.57-1.9,9-4.24A112.13,112.13,0,0,0,254.85,232.52Z"/><path class="cls-2" d="M74.2,327.28a91.45,91.45,0,0,1-10.17-35C63.25,298.05,58.74,350,95.47,379a112.17,112.17,0,0,0,103.18,9l-9.39-17.77A92.13,92.13,0,0,1,74.2,327.28Z"/></g></g></svg>