<svg xmlns="http://www.w3.org/2000/svg" viewBox="0 0 842.86 663.94"><defs><style>.cls-1{fill:#cc752e;}.cls-2{fill:none;stroke:#fff;stroke-width:3px;}.cls-2,.cls-3{stroke-miterlimit:10;}.cls-3{fill:#a5b5a5;stroke:#636863;stroke-width:17px;}</style></defs><title>Asset 6</title><g id="Layer_2" data-name="Layer 2"><g id="icon_Image_Detection" data-name="icon Image Detection"><g id="Layer_17" data-name="Layer 17"><path class="cls-1" d="M212.73,470.55q.69,1.85,1.35,3.72,3.11,4.14,6.16,8.32a5.25,5.25,0,0,1,.89-3C218.36,476.49,215.61,473.43,212.73,470.55Z"/><path class="cls-1" d="M663.74,342.42c-.31-9.67-.39-19.42-1.45-29-1.08-9.78-3.1-19.43-4.9-29.1-2.52-13.55-4.54-27.11-4-40.73C608.89,190.57,562.68,139,506.8,98H419.25q-23.54,18.57-48,35.94C313.4,175,252.29,211.12,192.4,249.1a138.9,138.9,0,0,0-14.91,40.25c-6.92,32.32-5.49,66.93,2.11,99,4.16,17.53,11.06,33.83,18.85,50,2.08,4.32,4.15,8.64,6.15,13A65.82,65.82,0,0,1,220,463.63c7.44,7.83,13.81,16.78,22.56,23.26a5.41,5.41,0,0,1,1.15,7.47,254.5,254.5,0,0,0,28.33,23.57c13.75,9.81,28.73,19.31,44.47,25.56a202.82,202.82,0,0,0,48.77,12.7c17.35,2.26,34.86,2.49,52.22,4.66,10.05,1.26,20.07,2.7,30.12,3.77A95.58,95.58,0,0,0,460,556.7c4.86-3.85,9.27-8.21,13.94-12.26a5.14,5.14,0,0,1,1.07-1.26c15.06-13.11,33.12-21.62,49.73-32.47,15.75-10.29,30.46-22.18,46.15-32.61,16.09-10.7,32.56-20.79,49.22-30.58,14-8.24,27.71-17,41.33-25.9.55-6.13,1.1-12.27,1.61-18.41C664.76,383,664.39,362.65,663.74,342.42Z"/><path class="cls-2" d="M225.64,490.21q3.36,4.86,6.59,9.79-.08-1.61-.24-3.23Q228.77,493.54,225.64,490.21Z"/><path class="cls-2" d="M246,509.86q-.06,5.61-.4,11.44,3.55,5.8,7.08,11.61.87-8.45,1.17-16.47Q249.86,513.22,246,509.86Z"/><path class="cls-2" d="M212.73,470.55q.68,1.83,1.33,3.67,3.12,4.15,6.17,8.34a5.26,5.26,0,0,1,.89-3C218.36,476.49,215.61,473.43,212.73,470.55Z"/><path class="cls-2" d="M171.58,396.47c-1.9,4.94-3.87,9.81-5.87,14.6,1.52,2.14,3,4.27,4.58,6.4l.9,1.21q2.05-4.86,4.1-9.91Q173.26,402.67,171.58,396.47Z"/><path class="cls-2" d="M664,352.63h-.44v4.24l-30.81,21c-6.55-41.74,7.09-80.15,19.19-114.19l1.78-5a126.87,126.87,0,0,1-.34-15l-2.1-2.5c-2.1,6.41-4.45,13-6.88,19.89-9.17,25.8-19.19,54-21.06,84.63-6.38-43.06,4.35-78,13.32-107.22,1.12-3.64,2.21-7.21,3.25-10.72q-3.1-3.63-6.23-7.25c-1.41,5-3,10.17-4.67,15.62-1.26,4.1-2.55,8.31-3.83,12.64,1.54-9.72,1.74-19-.06-27.73l5.57-4Q619,203.47,607,190.31c-.89.53-1.76,1-2.63,1.45l-.58.29-.46.46-.81.81c.34-2.25.71-4.47,1.1-6.69q-3.38-3.67-6.8-7.3c-1,5-1.85,10.12-2.59,15.24a56.06,56.06,0,0,0-1.07,5.54c-3.29,1.88-6.46,3.77-9.57,5.7H577c-.64-14.07,1.19-28.22,4.46-42.47q-3.3-3.34-6.64-6.64c-4.11,16.4-6.53,32.73-5.83,49.12h-.24v9.44L566.05,217l-.37.24-.31.31c-1.37,1.37-2.76,2.53-4.23,3.76l-.54.45a15.41,15.41,0,0,0-9.73,3.48c.08-.69.16-1.39.26-2.1,2.58-10.58,5.44-21.07,8.21-31.21,3.72-13.63,7.33-26.87,10.3-40.25q-3.37-3.27-6.79-6.5c-3.1,14.85-7.09,29.5-11.23,44.65-2.8,10.25-5.7,20.86-8.31,31.61l-.07.38a54.94,54.94,0,0,0-.5,12.63l-1,.64-6.22,4.09h-7.09c-1.37-36,10.6-70.06,24.62-103.1q-3.12-2.84-6.29-5.64c-15.14,35.47-29.07,74.36-26,115.13v3.42c-3.64,2.47-7.32,5-11.08,7.67a15.36,15.36,0,0,0-4.21,1.7c2.2-12,4.63-24,7-35.67,7.2-35.34,14-68.82,14.73-103.69h6.21q-4.84-4-9.77-8H402.5q-5.31,4-10.66,8h25.71l-32.75,22.27H376v6l-36.79,25h-8.45V178l-38.16,25.95h-8.44v5.74l-38.6,26.25H234.67v7.4l-14.74,10A15.52,15.52,0,0,0,216,256l-19.47,13.24h-9.79v6.66l-7.19,4.89q-1.15,4.26-2.08,8.58c-.39,1.82-.74,3.65-1.08,5.48a7.48,7.48,0,1,1-1.91,12.67c-.34,2.88-.6,5.77-.82,8.66a15.25,15.25,0,0,0,2.57.76l-2.76,1.89q-.32,5-.4,10l15-10.24c.38,21.06-4,41.43-10.39,60.88.6,3,1.23,6,1.93,8.95.45,1.88.93,3.74,1.43,5.59,6.78-18.5,12.46-38.36,14.35-59,4.12,30-.14,57.28-6.8,81.22q2.34,5.84,4.94,11.6c10.17-32.55,17.24-71.81,5.21-116.56l16.17-11.05h2.82v-1.93l17.69-12.09c.29,36.71-13.51,69.93-25.91,99.74-6.32,15.2-12.21,29.4-15.64,42.65q2.23,4.93,4.59,9.83l1.1,2.29C201.8,425.3,209,408,216.89,389c10.52-25.28,22-53,25.49-83.4,4.1,43.33-8.46,77.68-19,106.37-5.74,15.7-11,30.09-12.53,43.52a71.68,71.68,0,0,1,9.11,8.14,7.4,7.4,0,0,1,3.61-.94,7.47,7.47,0,0,1,6.08,11.83,106.07,106.07,0,0,0,8.86,9.09,5.36,5.36,0,0,0,2.18-1.14l3.28-2.38q1.18,7.84,1.65,16.1,4.08,3.84,8.3,7.5a187.22,187.22,0,0,0-2.7-28.82c6.8-4.86,13.49-9.54,20.13-14.13a55.44,55.44,0,0,1,0,9.8c-.1,1.83-.21,3.71-.22,5.57-1.4,11.05-3.93,22.39-6.38,33.36l-.58,2.62q3.47,2.69,7,5.27.68-3.09,1.36-6.15c2.51-11.23,5.1-22.84,6.54-34.35l0-.5c0-1.71.1-3.5.2-5.38.27-4.8.55-10-.84-15.16q6.62-4.53,13.25-9a158.56,158.56,0,0,1,1.46,16.43c.69,19.22-1.79,39.88-7.72,63.87q3.52,2.27,7.14,4.42c6.57-25.79,9.32-47.93,8.58-68.57a165,165,0,0,0-2.1-21.09l12.13-8.13h.89v-.6l6.14-4.11c2.89,11,.07,23.28-2.67,35.21-.36,1.58-.72,3.14-1.06,4.67-.94,4.24-1.91,8.47-2.89,12.7-2.79,12.13-5.68,24.67-7.68,37.25-1,6-1.71,12-2.27,17.79q3.81,2,7.69,3.8c.57-6.61,1.38-13.4,2.49-20.33,2-12.3,4.82-24.71,7.58-36.71,1-4.25,2-8.5,2.9-12.76.34-1.51.69-3.05,1-4.61,3-13.16,6.43-28,1.82-41.66,4.46-3,9-6,13.54-9.13,5.76,44-8.27,88.9-22.57,128.16l.32.13a204.48,204.48,0,0,0,28.27,8.92H465.1c3-2.65,5.88-5.38,8.89-8H460.06l142.58-98.13h.07v-.05l46-31.64h.61v-.42L663,404.79c0-.53.09-1.05.13-1.58.44-5.3.73-10.62.92-15.94a7.48,7.48,0,1,1-.42-5.08v1.4h.48c0,.06,0,.13,0,.2C664.39,373.41,664.29,363,664,352.63ZM186.76,288.19a15.41,15.41,0,0,0-2.35-1l2.35-1.6ZM195.08,304c-.11-.91-.21-1.81-.34-2.72,0-.38,0-.77-.06-1.15h6Zm14.65-11.86h-15V280.11l4.26-2.89h10.71Zm1.06-23,.39-.27c0,.09,0,.18,0,.27Zm6.94,19.35V280a15.38,15.38,0,0,0,8.49,2.77Zm8.84-13.79a7.47,7.47,0,0,1-5.48-12.56l2.79-1.9a7.48,7.48,0,1,1,2.69,14.46Zm8.11-20.65c-.3-.19-.6-.37-.92-.53l.92-.62Zm-3.95,202.27a15.37,15.37,0,0,0-2.93-1.15l2.93-2ZM235,434.74h-4.24v8.7q-5.55,3.91-11.16,7.78c2-10.94,6.41-23,11.37-36.53,1.47-4,3-8.16,4.49-12.42C233,413.65,232.48,424.52,235,434.74ZM610.74,199.8a7.48,7.48,0,1,1-7.48,7.48A7.49,7.49,0,0,1,610.74,199.8Zm-7,21.28a15.34,15.34,0,0,0,5.25,1.58l-5.31,3.51C603.76,224.45,603.78,222.76,603.74,221.08Zm-9.43,52.31c3.53-13.26,6.8-25.6,8.41-37,3.9-2.53,7.75-5.06,11.69-7.69l.14-.1,3.36-2.44c2.94,22.23-7.49,49.45-18.43,78-7.27,19-15,39.24-19.71,60.06C579.63,328.67,587.54,298.85,594.31,273.39Zm-17.57-52.22,1.91-.34c-.13-.73-.24-1.46-.36-2.19,2.6-1.66,5.12-3.27,7.62-4.83h5.8v15h-15Zm-.63,16c0-.14,0-.29,0-.43h11.13c-4.13,2.61-8.45,5.29-13.11,8.16L574,245A15.37,15.37,0,0,0,576.11,237.2Zm-23-.06q4.08-2.68,8.27-5.47l.33-.22.28-.28c.35-.35.71-.69,1.07-1a7.48,7.48,0,1,1-10,7.06S553.15,237.16,553.15,237.14Zm10,15.31-6.11,4.22q-.19-2.32-.58-4.57a14.8,14.8,0,0,0,6.69.35Zm-6,13.89q7.66-5.31,15.59-10.78c1.8,19.38-6.79,43.76-16.55,71.47s-20.61,58.52-23.94,91.64c-5.08-39.73,5.36-74.93,14.11-104.39C551.56,296.83,556.33,280.78,557.16,266.34ZM538.71,312c-10.95,36.85-24.49,82.43-8.49,135.3h-7.95V453l-26.42,18c-.4-52,11.93-83.39,22.91-111.33,9.85-25.06,18.38-46.78,14-76.29l.27-.19,15.62-10.85C547,284,543.1,297.21,538.71,312Zm-18.89,152.3,2.45-1.67v2.9A15.41,15.41,0,0,0,519.82,464.31Zm1.82,14.4a7.48,7.48,0,1,1-7.48-7.48A7.49,7.49,0,0,1,521.64,478.7Zm7.18-225.52c3-2,6.07-4.05,9.12-6.06h5.85v15h-15Zm0,18.46c0-.53,0-1-.08-1.56h9l-9.3,6.46-.54.38A15.37,15.37,0,0,0,528.82,271.65Zm-22.32-3,2.93-2,.11-.08,3.35-2.39.45,0a7.48,7.48,0,1,1-5.4,12.65,45.53,45.53,0,0,0-1.34-4.87l-.72.24c0-.18,0-.36,0-.55A7.43,7.43,0,0,1,506.5,268.63Zm6.7,18.5-4,2.79c0-1.14,0-2.26,0-3.38A15.41,15.41,0,0,0,513.2,287.12Zm-4.75,13,16.87-11.7c2.83,25.37-4.67,44.48-14,68.23-9.82,25-21.66,55.13-23.28,101.36-9.21-44.15,1.79-83.86,11-116.89C503.1,326.33,506.9,312.62,508.45,300.15Zm-7.72-4.39V282a62.6,62.6,0,0,1,.15,13.67Zm4-74.73c-2.89,14.17-5.87,28.83-8.42,43.57-.09.47-.16.94-.23,1.41l-12.83,8.61H482c-3.49-42.39,13.76-83.12,30.47-122.57,1.91-4.5,3.86-9.11,5.77-13.7C515.94,165.72,510.44,192.78,504.69,221Zm-27.77,84.56h9.57l-3.42,2.36q-2.83,1.61-5.7,3.28a15.56,15.56,0,0,0,.09-1.66A15.41,15.41,0,0,0,476.92,305.59Zm.84-8v-9.7l7.87-5.27h7.09v15ZM480,118.94h37.72a73,73,0,0,1-4.11,9.61l-.12.28c-2.72,6.67-5.62,13.5-8.42,20.11-17,40.17-34.59,81.63-31.14,125.69h-4.17v9l-12.88,8.59c2.66-11,5.62-22,8.5-32.65,12.26-45.46,24.9-92.41,14.12-140.26ZM407.93,342.33a46.27,46.27,0,0,1-.8-4.84,7.48,7.48,0,0,1,2.59-4.49l1.37-.9a7.48,7.48,0,1,1-3.15,10.24Zm4.65,11.77q-2.79,2.09-5.57,4.11v-5.92A15.36,15.36,0,0,0,412.58,354.1Zm-5.4-29c1.48-13.43,7.1-27.71,13.26-43.39,1.17-3,2.36-6,3.56-9.11-2.27,10.22-3.3,23.24.78,36.2H422v6.55ZM413,278.77c-7.34,18.67-13.94,35.47-14.21,51.84L390,336.36c-5.82-29,5.92-56,18.32-84.48,9.7-22.27,20.29-46.64,23.54-74.6C436.78,218.25,424.3,250,413,278.77ZM384.63,370h5.55q-2.8,1.9-5.61,3.79a14.24,14.24,0,0,0,.05-3.79Zm-.59-8V349.85l4.26-2.79H399v15Zm45.88-22.27h5.64q-3.34,2.37-6.77,4.91A15.37,15.37,0,0,0,429.93,339.75Zm.05-8V319.64l4.31-2.85h10.65v15Zm39.48-22.18a7.5,7.5,0,0,1-5.3,7.16,54,54,0,0,0-1.61-5.24l-6.65,2.43a7.48,7.48,0,1,1,13.56-4.35ZM467.13,295l2.64-1.76v3A15.4,15.4,0,0,0,467.13,295Zm-9.71,29.38q-2.25,1.64-4.48,3.21v-5.46A15.42,15.42,0,0,0,457.42,324.37Zm.39,9.57c-.61,13.72-5.55,28.55-11,44.86-1,2.85-1.92,5.75-2.89,8.72,2.84-16.21,1.2-29.53-4.92-40.39,3.38-2.41,6.71-4.74,10-7l.52-.37h3.43v-2.39Q455.36,335.67,457.81,333.94Zm-3.4,47.39c6.44-19.31,12.23-36.66,11.44-53.23l.68-.5c2.56-1.83,5.14-3.53,7.73-5.15,7.43,28.75-2.89,56.37-13.79,85.5-8.51,22.75-17.8,47.65-19.57,75.74C433.84,443,444.63,410.63,454.4,381.33Zm3.25-123.86c-3.62,13.42-7.34,27.26-10.51,41.2L433,308.06c-5-14-2.82-28.49,0-38.54,4.78-14.31,10.7-28.67,16.43-42.57,10.67-25.87,21.6-52.38,25.89-80.3C477.61,183.46,467.85,219.64,457.66,257.47Zm-4.77-138.53h12.94l-12.94,8.85Zm0,23v-4.43l16.31-11.15c-.82,33.75-13.64,64.84-27.14,97.57-2.88,7-5.81,14.08-8.62,21.24,7.66-26.54,11.5-57.58,1.14-95.15l11.84-8.09Zm-23-21.71,1.85-1.26h13.12v14.32l-.95.65h-14Zm-8,5.44v1.72a15.42,15.42,0,0,0-1.47-.72Zm-7.48,7.78A7.48,7.48,0,1,1,407,140.9,7.49,7.49,0,0,1,414.44,133.42Zm-7.48,21a15.36,15.36,0,0,0,4.53,1.65l-4.53,3.1Zm0,17.73v-3.3l17.91-12.24c1,35-11.62,63.94-23.86,92-13.08,30-25.46,58.51-18.58,90.37H376v6.47l-12.48,8.17c2.33-10.58,6.21-22.18,10.38-34.61,12.57-37.49,28-83.46,13.86-137.12l14.33-9.8ZM362.1,388.66l-1.33.87v-4.85a15.48,15.48,0,0,0,1.66.94l-1.35.7A22,22,0,0,1,362.1,388.66Zm-.33-16.91A7.48,7.48,0,0,1,376,368.62V370h.48a7.48,7.48,0,1,1-14.76,1.72Zm11.61-14.91,2.66-1.74v2.76A15.34,15.34,0,0,0,373.38,356.84Zm12.1-183c-.18-.56-.37-1.13-.56-1.69h3ZM384,151.43l3.26-2.22H399v15H384Zm-8,5.44V160a15.34,15.34,0,0,0-3-1.1Zm-6.79,9.54a7.49,7.49,0,0,1,6.79,4.36v1.4h.48a7.45,7.45,0,0,1,.21,1.71h0a7.48,7.48,0,1,1-7.48-7.49Zm-7.48,21a15.41,15.41,0,0,0,2.38,1.05l-2.38,1.62Zm-7.86-15.52c0,.1,0,.19,0,.29h-.38Zm-15.11,10.27,2.91-2h12.05v15h-15Zm3.86,21-2.83,1.94c-.09-.34-.17-.68-.27-1s0-.61,0-.91Zm-11.86-15.55v3.15a15.34,15.34,0,0,0-3-1.09Zm-6.69,9.61a7.49,7.49,0,0,1,6.69,4.15v1.79h.63a7.48,7.48,0,1,1-7.32-5.94Zm-8.94,20.1a15.43,15.43,0,0,0,3.86,2L315.12,222Zm-6.38-14.74c-.06.43-.1.87-.12,1.31h-1.8Zm-16.58,11.28,2.9-2h12.07v15h-15Zm4.1,21-3.36,2.3q-.1-1.15-.21-2.3Zm-12.1-15.56v4.51a15.37,15.37,0,0,0-4.28-1.6Zm-7.48,10.57a7.48,7.48,0,1,1-7.48,7.48A7.49,7.49,0,0,1,276.67,229.89Zm-11,18.33a15.51,15.51,0,0,0,5.71,3.68l-5.71,3.91Zm0,18.64v-1.36l19.52-13.35c-1.44,32.15-15.63,64.06-28.42,92.8-4.44,10-8.81,19.81-12.56,29.4,7.06-26.9,10.6-58.16,1.91-95.48l17.55-12Zm-4.21-32.08c-.06.37-.12.74-.16,1.12h-1.48Zm-18.75,12.75,5.35-3.64h9.62v15h-15ZM242.54,271q-.23-2.05-.52-4.12v0h7.45L244,270.59h0Zm-4,203.15a15.18,15.18,0,0,0-.11-8.43H250.3Q244.49,469.83,238.56,474.14Zm15.14-16.43h-15V447.57l2.6-1.84q2.69-1.48,5.32-3h7Zm-9.19-23h-1.26c-7-24.13,6.53-54.47,20.8-86.54,8.26-18.56,17.08-38.39,22.85-58.93-1.73,35.48-11.21,64.85-19.31,89.91-5.79,17.91-11,34.11-12,48.85Q250.11,431.46,244.5,434.74Zm17.19,23V451a15.46,15.46,0,0,0,5.37,3Zm10-11a7.48,7.48,0,1,1,7.48-7.48A7.49,7.49,0,0,1,271.73,446.7Zm9.48-19.7a15.42,15.42,0,0,0-5.43-2.71q2.72-1.86,5.43-3.75Zm0-16.25c-5.66,4-11.32,7.93-17.05,11.73,1.73-12,6.07-25.44,11-40.84,11.26-34.82,25.12-77.77,18.08-134,0-.35,0-.71,0-1.06l17.14-11.72h4.69v-3.21l15.94-10.9c-2.82,38-17.15,72.73-30,103.81-13.18,31.92-24.56,59.51-19.87,82.55Zm5.95,29.53c0-.35.05-.71.05-1.07a15.38,15.38,0,0,0-1-5.5h10.73Zm17-14.57h-15V414.88l5.74-4.13h9.23Zm-.29-31.33-4.14,3-7.39,5.36h-3.78c-2.76-20.23,7.78-45.78,19.89-75.13,11.27-27.3,23.67-57.35,28.74-90.25,3,39.95-9.3,74.54-19.6,103.49C310.63,360.53,304.29,378.38,303.89,394.39Zm8.29,29.1v-8.06a15.42,15.42,0,0,0,7,3.34Zm9.94-12.44a7.48,7.48,0,1,1,7.48-7.48A7.49,7.49,0,0,1,322.11,411.05Zm7.69-20.9a15.37,15.37,0,0,0-4-1.61l2.64-1.87,1.4-.85Zm0-13.64c-1.9,1.1-3.82,2.24-5.72,3.43l-.17.11q-5.89,4.12-11.61,8.25c1.58-13,6.84-27.84,12.86-44.76,12.51-35.2,27.89-78.49,16.66-130.13l15-10.24h4.93v-3.37l14.49-9.91c-2.71,50.25-16.4,80.34-28.62,107.18-11.37,25-21.2,46.57-17.78,77.18Zm25.07-76.12c11.12-24.42,24.54-53.91,28.6-100,6.87,44.58-6.21,83.65-17.11,116.15-5.36,16-10.28,30.67-12.19,44-.66.58-1.34,1.14-2,1.72-1.44,1.2-2.92,2.43-4.43,3.91-2.17,1.35-4.36,2.63-6.54,3.88h-3.72C335.3,343.4,344,324.3,354.87,300.39Zm-2.1,77.67v15h-15V381.15l2.36-1.33,3.12-1.76Zm-15.47,28.5a14.82,14.82,0,0,0,.07-5.53h7.5l-1.24,1.22ZM324.37,544.42c14.84-40.94,29.1-87.81,21.8-134.22l2.29-1.56.31-.21.26-.26a39.86,39.86,0,0,1,6.39-5.5l2.47-1.64h2.88v-1.91l3-2a65,65,0,0,1-1.53,16.45l0,.26c-1.38,10.37-2.95,20.85-4.47,31-4.87,32.55-9.87,66.17-9.25,99.62Zm33.09-23.49-.63,1.7c1.18-25.28,4.94-50.42,8.86-76.65,1.51-10.13,3.08-20.6,4.47-31,1.35-6.79,2.48-14.94,1.14-22.8l.62-.41c4.34-2.85,8.63-5.66,12.87-8.48,8,48.21-9.84,96.2-27.27,137.48Zm34.06,23.49h-33a154.38,154.38,0,0,1,6.37-20.6c18.1-42.89,36.63-92.91,27.41-143.91l-3.38.61c5.13-3.44,10.23-6.91,15.32-10.49H407v-2q3.85-2.74,7.71-5.59c1.34,7.47-1,15.93-3.38,24.83q-1.55,5.87-3.14,11.76c-12.34,46.06-25.07,93.59-13.11,140.38l-4.75,3.23Zm24.41-143.28c1.05-3.93,2.11-7.86,3.13-11.75,2.92-10.72,5.94-21.78,2.6-32.14l.87-.66a14.82,14.82,0,0,1,3.44-1.46,21.38,21.38,0,0,0,5.45-2.47l.18-.13.89-.66c6.73,12.69,6.38,29.79-1.1,52.24-3.22,10.1-6.89,20.35-10.44,30.27-9.39,26.25-19,53.15-21.91,81.06C395.45,477.55,405.82,438.84,415.92,401.14Zm7.37,143.28H406.74c-.09-1-.17-2-.24-3.05l16.8-11.42Zm0-28.29v4.14L406.18,531.9c0-32.53,11.32-64.13,22.3-94.82,2.35-6.57,4.74-13.29,7-20-6,26.29-8,56.64,3.61,92.44l-9.75,6.63Zm23,23h-15V524.5l.55-.37h14.42Zm4.28-23c-.24-1.43-.47-2.85-.67-4.26l1.73-1.18a14.75,14.75,0,0,0,.08,5.44Zm3.72,22.57V522.1a15.24,15.24,0,0,0,14.9,6.35Zm12.61-18.06a7.48,7.48,0,1,1,7.48-7.48A7.49,7.49,0,0,1,466.87,520.63Zm7.48-21a15.37,15.37,0,0,0-4.15-1.57l4.15-2.82Zm0-14.06-25.43,17.29c-2.52-34.42,8.41-63.68,19-92.1,11.64-31.14,22.65-60.61,13.41-92.59q2.92-1.7,5.81-3.34l.28-.18,11.91-8.21c-1.84,10-4.87,20.93-8.1,32.58-10.68,38.47-23.78,85.72-6.12,139.2l-3.57,2.43h-7.23Zm6,35.2a15.37,15.37,0,0,0,2-7.59c0-.53,0-1-.08-1.56h11.37Zm17-17.15h-15V489.78l1.69-1.15H489c.13.32.24.63.37.94l2.32-.94h5.67Zm-1.26-23v-.17l2.62-1.78v0a15.49,15.49,0,0,0,.13,1.93Zm9.26,22.93V491.4a15.4,15.4,0,0,0,17.32.24ZM523,491.37a15.47,15.47,0,0,0,6.61-12.67c0-.14,0-.28,0-.43h12.44Zm22.2-21.1h-15V457.2l2.78-1.89h12.18Zm3.63-23h-4l4.7-3.19A15.37,15.37,0,0,0,548.86,447.31Zm4.37,23.28v-11a15.44,15.44,0,0,0,9.32,4.54Zm11-14.31a7.48,7.48,0,1,1,7.48-7.48A7.49,7.49,0,0,1,564.27,456.27Zm7.48-21a15.37,15.37,0,0,0-6.43-1.88l6.43-4.37Zm0-19.92v4l-32.49,22.09c-.58-40.57,12.68-78.22,24.48-111.72,10.75-30.51,20.13-57.14,16.42-79.1,4.79-3,9.24-5.74,13.51-8.44-1.71,8.9-4.28,18.59-7.1,29.19-9.4,35.37-21,79-11,134.77.15,3.07.4,6.15.78,9.22Zm7.48,37.37a14.69,14.69,0,0,0,.3-6.4h9Zm15.48-14.4h-15V423.55l.33-.23h14.63Zm1.49-23h-4.36l4.9-3.34A15.39,15.39,0,0,0,596.21,415.32Zm6.51,21.2v-7.77a15.38,15.38,0,0,0,7.26,2.77Zm8.94-12.91a7.48,7.48,0,1,1,6.69-10.82v1.79H619a7.48,7.48,0,0,1-7.32,9Zm1.63-22.88,5.06-3.44v4.89A15.33,15.33,0,0,0,613.29,400.75Zm10.94-17.12h-5.89v4L584.6,410.58q-.55-2.68-1-5.33c-1.42-33.5,11.65-67.63,23.38-98.25,3.91-10.21,7.76-20.25,11-30-6,29.23-7.8,63.25,5.65,103.61l1.44-.48c.15.88.31,1.77.48,2.65Zm2.38,36.46a15.41,15.41,0,0,0,.53-3.95c0-.52,0-1-.08-1.54h7.53Zm14.7-13.49h-15V391.87l.35-.24h14.62Zm.1-23h-2.95l3.39-2.31A15.33,15.33,0,0,0,641.41,383.63Zm13.43,17-5.53,3.8v-5.6A15.36,15.36,0,0,0,654.84,400.66Zm8.75-29.24a15.34,15.34,0,0,0-5-1.48l5-3.4Z"/><path class="cls-2" d="M184.16,431.42l-.13-.29q-.53,1.61-1.07,3.2,2.92,3.77,5.87,7.53l.08-.24C187.32,438.23,185.72,434.84,184.16,431.42Z"/><path class="cls-2" d="M740.49,331.37v-9h-7.87Q736.53,326.88,740.49,331.37Z"/><path class="cls-2" d="M422,325.2l-.24-.13.24-.16Z"/><path class="cls-2" d="M432.16,142l0-.06h.1Z"/></g><path class="cls-3" d="M421.43,592.09c-71.79,0-139.32-27-190.16-76-51.06-49.21-79.17-114.71-79.17-184.42s28.12-135.21,79.17-184.42c50.84-49,118.37-76,190.16-76s139.32,27,190.16,76c51.06,49.21,79.17,114.71,79.17,184.42S662.65,466.89,611.59,516.1C560.75,565.1,493.22,592.09,421.43,592.09Zm0-476.82c-124.25,0-225.33,97.08-225.33,216.41S297.18,548.09,421.43,548.09,646.76,451,646.76,331.68,545.68,115.27,421.43,115.27Z"/><polygon class="cls-3" points="58.5 224.21 8.5 224.21 8.5 8.5 253.84 8.5 253.84 58.5 58.5 58.5 58.5 224.21"/><polygon class="cls-3" points="253.84 655.44 8.5 655.44 8.5 462.21 58.5 462.21 58.5 605.44 253.84 605.44 253.84 655.44"/><polygon class="cls-3" points="834.36 655.44 601.09 655.44 601.09 605.44 784.36 605.44 784.36 470.55 834.36 470.55 834.36 655.44"/><polygon class="cls-3" points="834.36 242.21 784.36 242.21 784.36 58.5 559.09 58.5 559.09 8.5 834.36 8.5 834.36 242.21"/></g></g></svg>