<svg xmlns="http://www.w3.org/2000/svg" viewBox="0 0 370.02 428.39"><defs><style>.cls-1{fill:none;}.cls-2{fill:#f9bf8f;}.cls-3{fill:#d8941d;}</style></defs><title>Asset 11</title><g id="Layer_2" data-name="Layer 2"><g id="Layer_21" data-name="Layer 21"><path class="cls-1" d="M97.45,148.58q-5.95,3.79-11.39,8C90.46,153.43,94.17,150.81,97.45,148.58Z"/><path class="cls-1" d="M114.07,106.31c-4.53-7.82-9.28-16-14.53-25l14.49,25Z"/><path class="cls-1" d="M319.61,197.07c-34.37-59.29-110.13-86.46-178.47-67.78-4.43,1.39-8.25,2.61-11.63,3.72L269.82,375.11c28-17,48.08-41.5,58.63-68.91a140.62,140.62,0,0,1-6.4,13.14,140.62,140.62,0,0,0,6.4-13.14A125.47,125.47,0,0,0,319.61,197.07Z"/><path class="cls-1" d="M129.45,132.93l.05.09c3.37-1.12,7.19-2.33,11.63-3.72C137.21,130.36,133.32,131.56,129.45,132.93Z"/><path class="cls-1" d="M33.6,272.6c0-.28.08-.49.1-.62,0,.13-.06.34-.1.62a127.16,127.16,0,0,0,16.81,52.26C86.73,387.54,169.31,414.34,240.5,389l-43.2-74,43.2,74,.06,0L100.19,146.82c-.93.57-1.83,1.17-2.75,1.76-3.28,2.23-7,4.86-11.39,8C48.75,185.56,29.59,229.09,33.6,272.6Z"/><path class="cls-2" d="M129.51,133l-.05-.09c3.86-1.37,7.76-2.57,11.68-3.64l.69-.22-.69.22c68.35-18.68,144.11,8.48,178.47,67.78a125.47,125.47,0,0,1,8.84,109.13c13.75-31.73,32.66-96.68,10.28-138.44C289.9,101.7,195.42,75.69,114.07,106.31c5.33,9.21,10.34,17.9,15.42,26.71Z"/><path class="cls-3" d="M33.6,272.6c-4-43.51,15.15-87,52.46-116l-.76.54.76-.54q5.44-4.22,11.39-8c11.56-7.87,17.95-10.89,32-15.56-5.09-8.81-10.09-17.5-15.42-26.71h0l-14.49-25h0L56.21,0,27,13.89,84.77,120.22C5.15,166.59-23.66,261.45,21.15,338.75c15.54,26.8,38,48.22,64.41,63.39C24.86,358.79,32.32,281.17,33.6,272.6Z"/><path class="cls-3" d="M348.87,183.18a165.93,165.93,0,0,0-10.14-15.42c22.38,41.76,3.48,106.71-10.28,138.44-10.54,27.41-30.59,51.88-58.63,68.91L129.51,133h0c7.37,12.76,14.9,25.81,23.85,41.13-8.95-15.32-16.49-28.36-23.85-41.13-14.1,4.67-20.49,7.69-32,15.56.92-.58,1.81-1.19,2.75-1.76L240.56,389l-.06,0L256,415.59q7.55-2.85,14.94-6.33C361.31,366.37,396.26,265,348.87,183.18Z"/><path class="cls-2" d="M50.41,324.86A127.16,127.16,0,0,1,33.6,272.6c-1.28,8.57-8.74,86.19,52,129.54,49.73,28.59,113.34,35,170.46,13.45L240.5,389C169.31,414.34,86.73,387.54,50.41,324.86Z"/></g></g></svg>